<svg width="41" height="41" viewBox="0 0 41 41" fill="none" xmlns="http://www.w3.org/2000/svg">
<g clip-path="url(#clip0_4_38)">
<path d="M13.0719 32.6085V15.6843H7.3355V32.6085H13.0719ZM10.2044 13.3722C12.2048 13.3722 13.45 12.0726 13.45 10.4486C13.4127 8.78792 12.2049 7.52441 10.2424 7.52441C8.28021 7.52441 6.99706 8.78795 6.99706 10.4486C6.99706 12.0727 8.24189 13.3722 10.167 13.3722H10.2043H10.2044ZM16.247 32.6085H21.9833V23.1572C21.9833 22.6514 22.0206 22.1461 22.1721 21.7845C22.5868 20.7739 23.5307 19.7272 25.1153 19.7272C27.1911 19.7272 28.0215 21.2792 28.0215 23.5543V32.6083H33.7575V22.9042C33.7575 17.7057 30.9275 15.287 27.1533 15.287C24.0587 15.287 22.7 16.9832 21.9452 18.1385H21.9835V15.6839H16.2471C16.3224 17.272 16.2471 32.6081 16.2471 32.6081L16.247 32.6085Z" fill="white"/>
</g>
<defs>
<clipPath id="clip0_4_38">
<rect width="26.7563" height="25.084" fill="white" transform="translate(6.99706 7.52441)"/>
</clipPath>
</defs>
</svg>
