<svg width="41" height="41" viewBox="0 0 41 41" fill="none" xmlns="http://www.w3.org/2000/svg">
<g clip-path="url(#clip0_4_42)">
<path d="M35.5342 12.0478C34.407 12.5236 33.2115 12.8358 31.9872 12.9742C33.2624 12.2461 34.2415 11.0931 34.7026 9.71932C33.4904 10.4046 32.1641 10.8875 30.7811 11.147C29.6546 10.0036 28.0497 9.28906 26.2734 9.28906C22.8628 9.28906 20.0977 11.9233 20.0977 15.1722C20.0977 15.6334 20.1523 16.0824 20.2576 16.5131C15.1251 16.2677 10.5747 13.9255 7.52879 10.366C6.99732 11.2349 6.69279 12.2457 6.69279 13.3237C6.69279 15.3649 7.78312 17.1656 9.44008 18.2207C8.45939 18.1914 7.50027 17.9391 6.64281 17.4847C6.64246 17.5094 6.64246 17.534 6.64246 17.5588C6.64246 20.4093 8.77115 22.7872 11.5962 23.3277C10.6868 23.5633 9.73289 23.5978 8.80737 23.4285C9.59317 25.7659 11.8739 27.4668 14.5761 27.5144C12.4626 29.0923 9.79976 30.0329 6.90655 30.0329C6.408 30.0329 5.91651 30.005 5.43337 29.9507C8.16632 31.6199 11.4124 32.5939 14.8998 32.5939C26.259 32.5939 32.4705 23.629 32.4705 15.8545C32.4705 15.5994 32.4646 15.3456 32.4526 15.0934C33.6616 14.2607 34.7052 13.2294 35.5342 12.0478Z" fill="white"/>
</g>
<defs>
<clipPath id="clip0_4_42">
<rect width="30.1008" height="23.4118" fill="white" transform="translate(5.43355 9.19727)"/>
</clipPath>
</defs>
</svg>
