<svg width="41" height="41" viewBox="0 0 41 41" fill="none" xmlns="http://www.w3.org/2000/svg">
<g clip-path="url(#clip0_4_34)">
<path d="M20.5998 14.1397C16.8014 14.1397 13.7375 17.1556 13.7375 20.8947C13.7375 24.6338 16.8014 27.6498 20.5998 27.6498C24.3983 27.6498 27.4621 24.6338 27.4621 20.8947C27.4621 17.1556 24.3983 14.1397 20.5998 14.1397ZM20.5998 25.2864C18.1452 25.2864 16.1384 23.3169 16.1384 20.8947C16.1384 18.4725 18.1392 16.503 20.5998 16.503C23.0604 16.503 25.0612 18.4725 25.0612 20.8947C25.0612 23.3169 23.0545 25.2864 20.5998 25.2864ZM29.3434 13.8633C29.3434 14.7393 28.6267 15.4389 27.7428 15.4389C26.8529 15.4389 26.1422 14.7334 26.1422 13.8633C26.1422 12.9932 26.8589 12.2878 27.7428 12.2878C28.6267 12.2878 29.3434 12.9932 29.3434 13.8633ZM33.8884 15.4625C33.7868 13.3519 33.2971 11.4823 31.7264 9.94201C30.1616 8.40169 28.2624 7.91961 26.1183 7.81379C23.9085 7.69033 17.2851 7.69033 15.0754 7.81379C12.9373 7.91373 11.038 8.39581 9.4673 9.93613C7.89656 11.4764 7.4128 13.346 7.30529 15.4566C7.17987 17.6318 7.17987 24.1517 7.30529 26.327C7.40682 28.4376 7.89656 30.3071 9.4673 31.8474C11.038 33.3877 12.9313 33.8698 15.0754 33.9756C17.2851 34.0991 23.9085 34.0991 26.1183 33.9756C28.2624 33.8757 30.1616 33.3936 31.7264 31.8474C33.2911 30.3071 33.7809 28.4376 33.8884 26.327C34.0138 24.1517 34.0138 17.6377 33.8884 15.4625ZM31.0336 28.661C30.5677 29.8133 29.6659 30.701 28.4893 31.1654C26.7275 31.8533 22.5468 31.6946 20.5998 31.6946C18.6528 31.6946 14.4662 31.8474 12.7103 31.1654C11.5397 30.7069 10.6379 29.8191 10.1661 28.661C9.4673 26.9266 9.62855 22.8113 9.62855 20.8947C9.62855 18.9781 9.47327 14.8569 10.1661 13.1285C10.6319 11.9762 11.5337 11.0884 12.7103 10.624C14.4722 9.93613 18.6528 10.0949 20.5998 10.0949C22.5468 10.0949 26.7335 9.94201 28.4893 10.624C29.6599 11.0825 30.5618 11.9703 31.0336 13.1285C31.7323 14.8628 31.5711 18.9781 31.5711 20.8947C31.5711 22.8113 31.7323 26.9325 31.0336 28.661Z" fill="white"/>
</g>
<defs>
<clipPath id="clip0_4_34">
<rect width="26.7563" height="30.1008" fill="white" transform="translate(7.21568 5.85205)"/>
</clipPath>
</defs>
</svg>
